<svg width="60" height="60" fill="none" xmlns="http://www.w3.org/2000/svg"><path fill-rule="evenodd" clip-rule="evenodd" d="M5.455 0h49.09A5.46 5.46 0 0160 5.455v49.09A5.46 5.46 0 0154.545 60H5.455A5.46 5.46 0 010 54.545V5.455A5.46 5.46 0 015.455 0zM19.09 6.818a1.364 1.364 0 10-2.727 0 1.364 1.364 0 002.727 0zm-5.455 0a1.364 1.364 0 10-2.727 0 1.364 1.364 0 002.727 0zm-5.454 0a1.364 1.364 0 10-2.727 0 1.364 1.364 0 002.727 0zM5.455 54.545h49.09V13.636H5.455v40.91zm4.09-10.909h27.273c.754 0 1.364-.61 1.364-1.364V20.454c0-.753-.61-1.364-1.364-1.364H9.546c-.754 0-1.364.61-1.364 1.364v21.818c0 .754.61 1.364 1.364 1.364zm15-17.727c0-.754.61-1.364 1.364-1.364h2.728a4.095 4.095 0 014.09 4.091v5.455a4.095 4.095 0 01-4.09 4.09h-2.728c-.753 0-1.363-.61-1.363-1.363v-10.91zm-10.909 2.727a4.095 4.095 0 014.091-4.09 4.095 4.095 0 014.091 4.09v8.182a1.363 1.363 0 11-2.727 0v-1.364h-2.727v1.364a1.363 1.363 0 11-2.728 0v-8.182zm4.091-1.363c.753 0 1.364.611 1.364 1.363v4.091h-2.727v-4.09c0-.753.61-1.364 1.363-1.364zM30 28.636v5.455c0 .752-.611 1.364-1.364 1.364h-1.363v-8.182h1.363c.753 0 1.364.611 1.364 1.363zm20.455 23.182H9.545a1.363 1.363 0 110-2.727h40.91a1.363 1.363 0 110 2.727zm-8.182-24.545h8.182a1.363 1.363 0 100-2.727h-8.182a1.363 1.363 0 100 2.727zm8.182 8.181h-8.182a1.363 1.363 0 110-2.727h8.182a1.363 1.363 0 110 2.727zm-8.182 8.182h8.182a1.363 1.363 0 100-2.727h-8.182a1.363 1.363 0 100 2.727z" fill="url(#paint0_linear)"/><defs><linearGradient id="paint0_linear" x1="30" y1="0" x2="30" y2="60" gradientUnits="userSpaceOnUse"><stop stop-color="#FF7738"/><stop offset="1" stop-color="#FF4742"/></linearGradient></defs></svg>