<svg id="Layer_1" enable-background="new 0 0 512 512" height="512" viewBox="0 0 512 512" width="512" xmlns="http://www.w3.org/2000/svg"><g><path d="m438.45 255.996c0 100.08-80.57 181.33-180.38 182.44-.69.01-1.38.01-2.07.01-100.76 0-182.45-81.68-182.45-182.45 0-100.76 81.69-182.44 182.45-182.44.69 0 1.38 0 2.07.01 99.81 1.11 180.38 82.36 180.38 182.43z" fill="#99e7fa"/><path d="m438.45 255.996c0 100.08-80.57 181.33-180.38 182.44 87.41-1.27 157.93-82.46 157.93-182.44 0-99.97-70.52-181.16-157.93-182.43 99.81 1.11 180.38 82.36 180.38 182.43z" fill="#4dd4f7"/><path d="m408.08 255.996c0 83.44-67.19 151.19-150.41 152.08-.55.01-1.11.01-1.67.01-83.99 0-152.08-68.09-152.08-152.09 0-83.99 68.09-152.08 152.08-152.08.56 0 1.12 0 1.67.01 83.22.89 150.41 68.64 150.41 152.07z" fill="#eef0f5"/><path d="m408.08 255.996c0 83.44-67.19 151.19-150.41 152.08 70.75-1.05 127.83-68.74 127.83-152.08 0-83.33-57.08-151.02-127.83-152.07 83.22.89 150.41 68.64 150.41 152.07z" fill="#dae1ea"/><circle cx="256" cy="256" fill="#415e6f" r="15"/></g><g><path d="m392.037 447.835-8.558 8.558v-59.698c38.347-34.777 62.466-84.972 62.466-140.695 0-4.142-3.357-7.5-7.5-7.5s-7.5 3.358-7.5 7.5c0 96.465-78.48 174.945-174.945 174.945s-174.945-78.48-174.945-174.945c0-33.21 9.343-65.521 27.018-93.441 17.208-27.183 41.508-49.096 70.271-63.369 3.71-1.841 5.226-6.342 3.385-10.052-1.842-3.709-6.34-5.226-10.053-3.384-9.732 4.829-18.993 10.464-27.696 16.826v-46.973l8.557 8.557c2.929 2.929 7.678 2.929 10.606 0 2.93-2.929 2.93-7.677.001-10.606l-21.36-21.361c-1.408-1.407-3.315-2.197-5.305-2.197s-3.896.79-5.304 2.197l-21.361 21.361c-2.929 2.929-2.929 7.678 0 10.606 1.465 1.464 3.385 2.197 5.304 2.197s3.839-.732 5.304-2.197l8.558-8.558v59.151c-12.893 11.602-24.207 24.969-33.581 39.777-19.198 30.325-29.344 65.411-29.344 101.466 0 55.945 24.312 106.318 62.925 141.11v59.283l-8.558-8.558c-2.93-2.929-7.678-2.929-10.607 0s-2.929 7.678 0 10.606l21.361 21.361c1.407 1.407 3.314 2.197 5.304 2.197s3.896-.79 5.304-2.197l21.36-21.361c2.929-2.929 2.929-7.678-.001-10.606-2.928-2.93-7.677-2.929-10.606 0l-8.557 8.557v-47.082c29.541 21.644 65.542 34.967 104.521 36.488v40.594l-8.558-8.558c-2.93-2.929-7.678-2.929-10.607 0s-2.929 7.678 0 10.606l21.361 21.361c1.465 1.464 3.385 2.197 5.304 2.197s3.839-.732 5.304-2.197l21.361-21.361c2.929-2.929 2.929-7.678 0-10.606-2.93-2.929-7.678-2.929-10.607 0l-8.558 8.558v-40.594c39.181-1.529 75.353-14.983 104.979-36.825v47.419l-8.558-8.558c-2.93-2.929-7.678-2.929-10.607 0s-2.929 7.678 0 10.606l21.361 21.361c1.465 1.464 3.385 2.197 5.304 2.197s3.839-.732 5.304-2.197l21.361-21.361c2.929-2.929 2.929-7.678 0-10.606-2.93-2.928-7.678-2.928-10.608.001z"/><path d="m208.599 87.55c15.35-4.31 31.298-6.496 47.401-6.496 84.332 0 156.674 60.083 172.013 142.864.669 3.611 3.82 6.135 7.365 6.135.453 0 .913-.042 1.375-.127 4.073-.755 6.763-4.668 6.008-8.741-7.815-42.182-29.259-78.935-59.281-106.067v-59.512l8.558 8.558c1.465 1.464 3.385 2.197 5.304 2.197s3.839-.732 5.304-2.197c2.929-2.929 2.929-7.678 0-10.606l-21.361-21.361c-2.93-2.929-7.678-2.929-10.607 0l-21.361 21.361c-2.929 2.929-2.929 7.678 0 10.606 2.93 2.929 7.678 2.929 10.607 0l8.558-8.558v47.281c-29.797-21.873-66.071-35.167-104.982-36.686v-40.595l8.558 8.558c1.465 1.464 3.385 2.197 5.304 2.197s3.839-.732 5.304-2.197c2.929-2.929 2.929-7.678 0-10.606l-21.362-21.361c-2.93-2.929-7.678-2.929-10.607 0l-21.361 21.361c-2.929 2.929-2.929 7.678 0 10.606 2.93 2.929 7.678 2.929 10.607 0l8.558-8.558v40.594c-14.922.582-29.675 2.898-43.956 6.908-3.988 1.12-6.313 5.26-5.193 9.248s5.258 6.313 9.247 5.194z"/><path d="m224.189 412.412c10.403 2.104 21.105 3.172 31.811 3.172 87.995 0 159.584-71.589 159.584-159.584s-71.589-159.584-159.584-159.584-159.584 71.589-159.584 159.584c0 30.944 8.869 60.958 25.648 86.799 16.342 25.167 39.314 45.169 66.435 57.846 3.753 1.754 8.216.133 9.97-3.619 1.755-3.752.135-8.216-3.618-9.97-24.575-11.487-45.395-29.616-60.206-52.426-15.196-23.403-23.229-50.593-23.229-78.63 0-79.724 64.86-144.584 144.584-144.584s144.584 64.86 144.584 144.584-64.86 144.584-144.584 144.584c-9.708 0-19.41-.967-28.836-2.874-4.058-.823-8.017 1.804-8.839 5.864-.821 4.06 1.805 8.017 5.864 8.838z"/><path d="m256 278.5c3.469 0 6.758-.79 9.695-2.198l34.645 34.645c1.465 1.464 3.385 2.197 5.304 2.197s3.839-.732 5.304-2.197c2.929-2.929 2.929-7.678 0-10.606l-34.645-34.645c1.408-2.937 2.198-6.226 2.198-9.695 0-9.778-6.27-18.119-15-21.215v-96.409c0-4.142-3.357-7.5-7.5-7.5s-7.5 3.358-7.5 7.5v96.409c-6.383 2.263-11.451 7.331-13.715 13.715h-48.731c-4.143 0-7.5 3.358-7.5 7.5s3.357 7.5 7.5 7.5h48.731c3.095 8.729 11.436 14.999 21.214 14.999zm0-30c4.136 0 7.5 3.364 7.5 7.5s-3.364 7.5-7.5 7.5-7.5-3.364-7.5-7.5 3.364-7.5 7.5-7.5z"/><path d="m248.5 358.084v20c0 4.142 3.357 7.5 7.5 7.5s7.5-3.358 7.5-7.5v-20c0-4.142-3.357-7.5-7.5-7.5s-7.5 3.358-7.5 7.5z"/><path d="m133.055 248.5c-4.143 0-7.5 3.358-7.5 7.5s3.357 7.5 7.5 7.5h20c4.143 0 7.5-3.358 7.5-7.5s-3.357-7.5-7.5-7.5z"/><path d="m377.974 263.5c4.143 0 7.5-3.358 7.5-7.5s-3.357-7.5-7.5-7.5h-20c-4.143 0-7.5 3.358-7.5 7.5s3.357 7.5 7.5 7.5z"/><path d="m178.246 189.091c1.465 1.465 3.384 2.197 5.304 2.197 1.919 0 3.839-.732 5.303-2.197 2.93-2.929 2.93-7.677.001-10.606l-14.142-14.142c-2.929-2.929-7.678-2.929-10.606 0-2.93 2.929-2.93 7.677-.001 10.606z"/><path d="m323.146 333.99 14.142 14.142c1.465 1.465 3.384 2.197 5.304 2.197 1.919 0 3.839-.732 5.303-2.197 2.93-2.929 2.93-7.677.001-10.606l-14.142-14.142c-2.929-2.929-7.678-2.93-10.606 0-2.93 2.928-2.93 7.677-.002 10.606z"/><path d="m328.45 191.05c1.919 0 3.839-.732 5.304-2.197l14.142-14.142c2.929-2.929 2.929-7.678-.001-10.606-2.928-2.93-7.677-2.929-10.606 0l-14.142 14.142c-2.929 2.929-2.929 7.678.001 10.606 1.463 1.465 3.383 2.197 5.302 2.197z"/><path d="m164.105 347.895c1.464 1.465 3.384 2.197 5.303 2.197s3.839-.732 5.304-2.197l14.142-14.142c2.929-2.929 2.929-7.678-.001-10.606-2.928-2.93-7.677-2.929-10.606 0l-14.142 14.142c-2.929 2.929-2.929 7.677 0 10.606z"/></g></svg>