<svg width="60" height="60" viewBox="0 0 60 60" fill="none" xmlns="http://www.w3.org/2000/svg">
<path fill-rule="evenodd" clip-rule="evenodd" d="M5.45458 0H54.5454C57.5524 0 59.9999 2.44623 60 5.45458V54.5454C60 57.5538 57.5524 60 54.5454 60H5.45458C2.44764 60 0 57.5536 0 54.5454V5.45458C0 2.44623 2.44764 0 5.45458 0ZM19.091 6.81826C19.091 6.06502 18.4804 5.45458 17.7273 5.45458C16.9742 5.45458 16.3636 6.06489 16.3636 6.81813C16.3636 7.57124 16.9742 8.18193 17.7273 8.18193C18.4804 8.18193 19.091 7.57137 19.091 6.81826ZM13.6364 6.81826C13.6364 6.06502 13.0258 5.45458 12.2727 5.45458C11.5196 5.45458 10.909 6.06489 10.909 6.81813C10.909 7.57124 11.5196 8.18181 12.2727 8.18181C13.0258 8.18181 13.6364 7.57124 13.6364 6.81826ZM8.18181 6.81813C8.18181 6.06489 7.57124 5.45458 6.81813 5.45458C6.06515 5.45458 5.45458 6.06489 5.45445 6.81813C5.45445 7.57124 6.06502 8.18181 6.81813 8.18181C7.57124 8.18181 8.18181 7.57124 8.18181 6.81813ZM5.45458 54.5454H54.5454V13.6364H5.45458V54.5454ZM9.54563 43.636H36.8183C37.572 43.636 38.1819 43.026 38.1819 42.2723V20.4542C38.1819 19.7005 37.572 19.0905 36.8183 19.0905H9.54563C8.79188 19.0905 8.18195 19.7005 8.18195 20.4542V42.2724C8.18195 43.0262 8.79188 43.636 9.54563 43.636ZM24.5456 25.9088C24.5456 25.155 25.1555 24.5451 25.9092 24.5451H28.6365C30.8923 24.5451 32.7274 26.3801 32.7274 28.636V34.0906C32.7274 36.3465 30.8923 38.1815 28.6365 38.1815H25.9092C25.1555 38.1815 24.5456 37.5716 24.5456 36.8178V25.9088ZM13.6365 28.636C13.6365 26.3801 15.4716 24.5451 17.7274 24.5451C19.9833 24.5451 21.8183 26.3801 21.8183 28.636V36.8178C21.8183 37.5716 21.2084 38.1815 20.4547 38.1815C19.7009 38.1815 19.091 37.5716 19.091 36.8178V35.4542H16.3638V36.8178C16.3638 37.5716 15.7538 38.1815 15.0001 38.1815C14.2463 38.1815 13.6364 37.5716 13.6364 36.8178V28.636H13.6365ZM17.7274 27.2728C18.4798 27.2728 19.091 27.8841 19.091 28.6364V32.7273H16.3638V28.6364C16.3638 27.8841 16.9749 27.2728 17.7274 27.2728ZM29.9998 28.6364V34.091C29.9998 34.8434 29.3885 35.4546 28.6362 35.4546H27.2725V27.2728H28.6362C29.3886 27.2728 29.9998 27.8841 29.9998 28.6364ZM50.4547 51.8182H9.54563C8.79188 51.8182 8.18195 51.2084 8.18195 50.4546C8.18195 49.7009 8.79188 49.091 9.54563 49.0908H50.4547C51.2084 49.0908 51.8183 49.7008 51.8183 50.4545C51.8183 51.2083 51.2084 51.8182 50.4547 51.8182ZM42.2731 27.2728H50.4549C51.2087 27.2728 51.8186 26.6629 51.8186 25.9092C51.8186 25.1554 51.2087 24.5456 50.4549 24.5456H42.2731C41.5193 24.5456 40.9094 25.1555 40.9094 25.9093C40.9094 26.663 41.5193 27.2728 42.2731 27.2728ZM50.4549 35.4543H42.2731C41.5193 35.4543 40.9094 34.8445 40.9094 34.0908C40.9094 33.337 41.5193 32.7271 42.2731 32.7271H50.4549C51.2087 32.7271 51.8186 33.3369 51.8186 34.0906C51.8186 34.8444 51.2087 35.4543 50.4549 35.4543ZM42.2731 43.6363H50.4549C51.2087 43.6363 51.8186 43.0264 51.8186 42.2726C51.8186 41.5189 51.2087 40.909 50.4549 40.909H42.2731C41.5193 40.909 40.9094 41.5189 40.9094 42.2726C40.9094 43.0265 41.5193 43.6363 42.2731 43.6363Z" fill="url(#paint0_linear)"/>
<defs>
<linearGradient id="paint0_linear" x1="30" y1="0" x2="30" y2="60" gradientUnits="userSpaceOnUse">
<stop stop-color="#FF7738"/>
<stop offset="1" stop-color="#FF4742"/>
</linearGradient>
</defs>
</svg>
